<svg xmlns="http://www.w3.org/2000/svg" viewBox="0 0 860 200" width="860" height="200">
<style>.c{opacity:0;animation:in .45s ease-out forwards}@keyframes in{from{opacity:0;transform:translateY(-6px)}to{opacity:1;transform:none}}text{font-family:ui-monospace,SFMono-Regular,Menlo,Consolas,monospace;font-size:11px;fill:#8b949e}</style>
<rect width="100%" height="100%" rx="8" fill="#0d1117"/>
<text x="16" y="63">seg</text>
<text x="16" y="93">qua</text>
<text x="16" y="123">sex</text>
<text x="50" y="30">out</text>
<rect class="c" style="animation-delay:0.000s" x="50" y="38" width="12" height="12" rx="2.5" fill="#161b22"/>
<rect class="c" style="animation-delay:0.012s" x="50" y="53" width="12" height="12" rx="2.5" fill="#161b22"/>
<rect class="c" style="animation-delay:0.024s" x="50" y="68" width="12" height="12" rx="2.5" fill="#161b22"/>
<rect class="c" style="animation-delay:0.036s" x="50" y="83" width="12" height="12" rx="2.5" fill="#161b22"/>
<rect class="c" style="animation-delay:0.048s" x="50" y="98" width="12" height="12" rx="2.5" fill="#161b22"/>
<rect class="c" style="animation-delay:0.060s" x="50" y="113" width="12" height="12" rx="2.5" fill="#161b22"/>
<rect class="c" style="animation-delay:0.072s" x="50" y="128" width="12" height="12" rx="2.5" fill="#161b22"/>
<rect class="c" style="animation-delay:0.012s" x="65" y="38" width="12" height="12" rx="2.5" fill="#161b22"/>
<rect class="c" style="animation-delay:0.024s" x="65" y="53" width="12" height="12" rx="2.5" fill="#161b22"/>
<rect class="c" style="animation-delay:0.036s" x="65" y="68" width="12" height="12" rx="2.5" fill="#161b22"/>
<rect class="c" style="animation-delay:0.048s" x="65" y="83" width="12" height="12" rx="2.5" fill="#161b22"/>
<rect class="c" style="animation-delay:0.060s" x="65" y="98" width="12" height="12" rx="2.5" fill="#161b22"/>
<rect class="c" style="animation-delay:0.072s" x="65" y="113" width="12" height="12" rx="2.5" fill="#161b22"/>
<rect class="c" style="animation-delay:0.084s" x="65" y="128" width="12" height="12" rx="2.5" fill="#161b22"/>
<rect class="c" style="animation-delay:0.024s" x="80" y="38" width="12" height="12" rx="2.5" fill="#161b22"/>
<rect class="c" style="animation-delay:0.036s" x="80" y="53" width="12" height="12" rx="2.5" fill="#161b22"/>
<rect class="c" style="animation-delay:0.048s" x="80" y="68" width="12" height="12" rx="2.5" fill="#161b22"/>
<rect class="c" style="animation-delay:0.060s" x="80" y="83" width="12" height="12" rx="2.5" fill="#161b22"/>
<rect class="c" style="animation-delay:0.072s" x="80" y="98" width="12" height="12" rx="2.5" fill="#161b22"/>
<rect class="c" style="animation-delay:0.084s" x="80" y="113" width="12" height="12" rx="2.5" fill="#161b22"/>
<rect class="c" style="animation-delay:0.096s" x="80" y="128" width="12" height="12" rx="2.5" fill="#161b22"/>
<rect class="c" style="animation-delay:0.036s" x="95" y="38" width="12" height="12" rx="2.5" fill="#161b22"/>
<rect class="c" style="animation-delay:0.048s" x="95" y="53" width="12" height="12" rx="2.5" fill="#161b22"/>
<rect class="c" style="animation-delay:0.060s" x="95" y="68" width="12" height="12" rx="2.5" fill="#161b22"/>
<rect class="c" style="animation-delay:0.072s" x="95" y="83" width="12" height="12" rx="2.5" fill="#161b22"/>
<rect class="c" style="animation-delay:0.084s" x="95" y="98" width="12" height="12" rx="2.5" fill="#161b22"/>
<rect class="c" style="animation-delay:0.096s" x="95" y="113" width="12" height="12" rx="2.5" fill="#161b22"/>
<rect class="c" style="animation-delay:0.108s" x="95" y="128" width="12" height="12" rx="2.5" fill="#161b22"/>
<text x="110" y="30">nov</text>
<rect class="c" style="animation-delay:0.048s" x="110" y="38" width="12" height="12" rx="2.5" fill="#161b22"/>
<rect class="c" style="animation-delay:0.060s" x="110" y="53" width="12" height="12" rx="2.5" fill="#161b22"/>
<rect class="c" style="animation-delay:0.072s" x="110" y="68" width="12" height="12" rx="2.5" fill="#161b22"/>
<rect class="c" style="animation-delay:0.084s" x="110" y="83" width="12" height="12" rx="2.5" fill="#161b22"/>
<rect class="c" style="animation-delay:0.096s" x="110" y="98" width="12" height="12" rx="2.5" fill="#161b22"/>
<rect class="c" style="animation-delay:0.108s" x="110" y="113" width="12" height="12" rx="2.5" fill="#161b22"/>
<rect class="c" style="animation-delay:0.120s" x="110" y="128" width="12" height="12" rx="2.5" fill="#161b22"/>
<rect class="c" style="animation-delay:0.060s" x="125" y="38" width="12" height="12" rx="2.5" fill="#161b22"/>
<rect class="c" style="animation-delay:0.072s" x="125" y="53" width="12" height="12" rx="2.5" fill="#161b22"/>
<rect class="c" style="animation-delay:0.084s" x="125" y="68" width="12" height="12" rx="2.5" fill="#161b22"/>
<rect class="c" style="animation-delay:0.096s" x="125" y="83" width="12" height="12" rx="2.5" fill="#161b22"/>
<rect class="c" style="animation-delay:0.108s" x="125" y="98" width="12" height="12" rx="2.5" fill="#161b22"/>
<rect class="c" style="animation-delay:0.120s" x="125" y="113" width="12" height="12" rx="2.5" fill="#161b22"/>
<rect class="c" style="animation-delay:0.132s" x="125" y="128" width="12" height="12" rx="2.5" fill="#161b22"/>
<rect class="c" style="animation-delay:0.072s" x="140" y="38" width="12" height="12" rx="2.5" fill="#161b22"/>
<rect class="c" style="animation-delay:0.084s" x="140" y="53" width="12" height="12" rx="2.5" fill="#161b22"/>
<rect class="c" style="animation-delay:0.096s" x="140" y="68" width="12" height="12" rx="2.5" fill="#161b22"/>
<rect class="c" style="animation-delay:0.108s" x="140" y="83" width="12" height="12" rx="2.5" fill="#161b22"/>
<rect class="c" style="animation-delay:0.120s" x="140" y="98" width="12" height="12" rx="2.5" fill="#161b22"/>
<rect class="c" style="animation-delay:0.132s" x="140" y="113" width="12" height="12" rx="2.5" fill="#161b22"/>
<rect class="c" style="animation-delay:0.144s" x="140" y="128" width="12" height="12" rx="2.5" fill="#161b22"/>
<rect class="c" style="animation-delay:0.084s" x="155" y="38" width="12" height="12" rx="2.5" fill="#161b22"/>
<rect class="c" style="animation-delay:0.096s" x="155" y="53" width="12" height="12" rx="2.5" fill="#161b22"/>
<rect class="c" style="animation-delay:0.108s" x="155" y="68" width="12" height="12" rx="2.5" fill="#161b22"/>
<rect class="c" style="animation-delay:0.120s" x="155" y="83" width="12" height="12" rx="2.5" fill="#161b22"/>
<rect class="c" style="animation-delay:0.132s" x="155" y="98" width="12" height="12" rx="2.5" fill="#161b22"/>
<rect class="c" style="animation-delay:0.144s" x="155" y="113" width="12" height="12" rx="2.5" fill="#161b22"/>
<rect class="c" style="animation-delay:0.156s" x="155" y="128" width="12" height="12" rx="2.5" fill="#161b22"/>
<rect class="c" style="animation-delay:0.096s" x="170" y="38" width="12" height="12" rx="2.5" fill="#161b22"/>
<rect class="c" style="animation-delay:0.108s" x="170" y="53" width="12" height="12" rx="2.5" fill="#161b22"/>
<rect class="c" style="animation-delay:0.120s" x="170" y="68" width="12" height="12" rx="2.5" fill="#161b22"/>
<rect class="c" style="animation-delay:0.132s" x="170" y="83" width="12" height="12" rx="2.5" fill="#161b22"/>
<rect class="c" style="animation-delay:0.144s" x="170" y="98" width="12" height="12" rx="2.5" fill="#161b22"/>
<rect class="c" style="animation-delay:0.156s" x="170" y="113" width="12" height="12" rx="2.5" fill="#161b22"/>
<rect class="c" style="animation-delay:0.168s" x="170" y="128" width="12" height="12" rx="2.5" fill="#161b22"/>
<text x="185" y="30">dez</text>
<rect class="c" style="animation-delay:0.108s" x="185" y="38" width="12" height="12" rx="2.5" fill="#161b22"/>
<rect class="c" style="animation-delay:0.120s" x="185" y="53" width="12" height="12" rx="2.5" fill="#161b22"/>
<rect class="c" style="animation-delay:0.132s" x="185" y="68" width="12" height="12" rx="2.5" fill="#161b22"/>
<rect class="c" style="animation-delay:0.144s" x="185" y="83" width="12" height="12" rx="2.5" fill="#161b22"/>
<rect class="c" style="animation-delay:0.156s" x="185" y="98" width="12" height="12" rx="2.5" fill="#161b22"/>
<rect class="c" style="animation-delay:0.168s" x="185" y="113" width="12" height="12" rx="2.5" fill="#161b22"/>
<rect class="c" style="animation-delay:0.180s" x="185" y="128" width="12" height="12" rx="2.5" fill="#161b22"/>
<rect class="c" style="animation-delay:0.120s" x="200" y="38" width="12" height="12" rx="2.5" fill="#161b22"/>
<rect class="c" style="animation-delay:0.132s" x="200" y="53" width="12" height="12" rx="2.5" fill="#161b22"/>
<rect class="c" style="animation-delay:0.144s" x="200" y="68" width="12" height="12" rx="2.5" fill="#161b22"/>
<rect class="c" style="animation-delay:0.156s" x="200" y="83" width="12" height="12" rx="2.5" fill="#161b22"/>
<rect class="c" style="animation-delay:0.168s" x="200" y="98" width="12" height="12" rx="2.5" fill="#161b22"/>
<rect class="c" style="animation-delay:0.180s" x="200" y="113" width="12" height="12" rx="2.5" fill="#161b22"/>
<rect class="c" style="animation-delay:0.192s" x="200" y="128" width="12" height="12" rx="2.5" fill="#161b22"/>
<rect class="c" style="animation-delay:0.132s" x="215" y="38" width="12" height="12" rx="2.5" fill="#161b22"/>
<rect class="c" style="animation-delay:0.144s" x="215" y="53" width="12" height="12" rx="2.5" fill="#161b22"/>
<rect class="c" style="animation-delay:0.156s" x="215" y="68" width="12" height="12" rx="2.5" fill="#161b22"/>
<rect class="c" style="animation-delay:0.168s" x="215" y="83" width="12" height="12" rx="2.5" fill="#161b22"/>
<rect class="c" style="animation-delay:0.180s" x="215" y="98" width="12" height="12" rx="2.5" fill="#161b22"/>
<rect class="c" style="animation-delay:0.192s" x="215" y="113" width="12" height="12" rx="2.5" fill="#161b22"/>
<rect class="c" style="animation-delay:0.204s" x="215" y="128" width="12" height="12" rx="2.5" fill="#161b22"/>
<rect class="c" style="animation-delay:0.144s" x="230" y="38" width="12" height="12" rx="2.5" fill="#161b22"/>
<rect class="c" style="animation-delay:0.156s" x="230" y="53" width="12" height="12" rx="2.5" fill="#161b22"/>
<rect class="c" style="animation-delay:0.168s" x="230" y="68" width="12" height="12" rx="2.5" fill="#161b22"/>
<rect class="c" style="animation-delay:0.180s" x="230" y="83" width="12" height="12" rx="2.5" fill="#161b22"/>
<rect class="c" style="animation-delay:0.192s" x="230" y="98" width="12" height="12" rx="2.5" fill="#161b22"/>
<rect class="c" style="animation-delay:0.204s" x="230" y="113" width="12" height="12" rx="2.5" fill="#161b22"/>
<rect class="c" style="animation-delay:0.216s" x="230" y="128" width="12" height="12" rx="2.5" fill="#161b22"/>
<text x="245" y="30">jan</text>
<rect class="c" style="animation-delay:0.156s" x="245" y="38" width="12" height="12" rx="2.5" fill="#161b22"/>
<rect class="c" style="animation-delay:0.168s" x="245" y="53" width="12" height="12" rx="2.5" fill="#161b22"/>
<rect class="c" style="animation-delay:0.180s" x="245" y="68" width="12" height="12" rx="2.5" fill="#161b22"/>
<rect class="c" style="animation-delay:0.192s" x="245" y="83" width="12" height="12" rx="2.5" fill="#161b22"/>
<rect class="c" style="animation-delay:0.204s" x="245" y="98" width="12" height="12" rx="2.5" fill="#161b22"/>
<rect class="c" style="animation-delay:0.216s" x="245" y="113" width="12" height="12" rx="2.5" fill="#161b22"/>
<rect class="c" style="animation-delay:0.228s" x="245" y="128" width="12" height="12" rx="2.5" fill="#161b22"/>
<rect class="c" style="animation-delay:0.168s" x="260" y="38" width="12" height="12" rx="2.5" fill="#161b22"/>
<rect class="c" style="animation-delay:0.180s" x="260" y="53" width="12" height="12" rx="2.5" fill="#161b22"/>
<rect class="c" style="animation-delay:0.192s" x="260" y="68" width="12" height="12" rx="2.5" fill="#161b22"/>
<rect class="c" style="animation-delay:0.204s" x="260" y="83" width="12" height="12" rx="2.5" fill="#161b22"/>
<rect class="c" style="animation-delay:0.216s" x="260" y="98" width="12" height="12" rx="2.5" fill="#161b22"/>
<rect class="c" style="animation-delay:0.228s" x="260" y="113" width="12" height="12" rx="2.5" fill="#161b22"/>
<rect class="c" style="animation-delay:0.240s" x="260" y="128" width="12" height="12" rx="2.5" fill="#161b22"/>
<rect class="c" style="animation-delay:0.180s" x="275" y="38" width="12" height="12" rx="2.5" fill="#161b22"/>
<rect class="c" style="animation-delay:0.192s" x="275" y="53" width="12" height="12" rx="2.5" fill="#161b22"/>
<rect class="c" style="animation-delay:0.204s" x="275" y="68" width="12" height="12" rx="2.5" fill="#161b22"/>
<rect class="c" style="animation-delay:0.216s" x="275" y="83" width="12" height="12" rx="2.5" fill="#161b22"/>
<rect class="c" style="animation-delay:0.228s" x="275" y="98" width="12" height="12" rx="2.5" fill="#0e4429"/>
<rect class="c" style="animation-delay:0.240s" x="275" y="113" width="12" height="12" rx="2.5" fill="#161b22"/>
<rect class="c" style="animation-delay:0.252s" x="275" y="128" width="12" height="12" rx="2.5" fill="#161b22"/>
<rect class="c" style="animation-delay:0.192s" x="290" y="38" width="12" height="12" rx="2.5" fill="#161b22"/>
<rect class="c" style="animation-delay:0.204s" x="290" y="53" width="12" height="12" rx="2.5" fill="#161b22"/>
<rect class="c" style="animation-delay:0.216s" x="290" y="68" width="12" height="12" rx="2.5" fill="#0e4429"/>
<rect class="c" style="animation-delay:0.228s" x="290" y="83" width="12" height="12" rx="2.5" fill="#161b22"/>
<rect class="c" style="animation-delay:0.240s" x="290" y="98" width="12" height="12" rx="2.5" fill="#0e4429"/>
<rect class="c" style="animation-delay:0.252s" x="290" y="113" width="12" height="12" rx="2.5" fill="#0e4429"/>
<rect class="c" style="animation-delay:0.264s" x="290" y="128" width="12" height="12" rx="2.5" fill="#0e4429"/>
<text x="305" y="30">fev</text>
<rect class="c" style="animation-delay:0.204s" x="305" y="38" width="12" height="12" rx="2.5" fill="#0e4429"/>
<rect class="c" style="animation-delay:0.216s" x="305" y="53" width="12" height="12" rx="2.5" fill="#0e4429"/>
<rect class="c" style="animation-delay:0.228s" x="305" y="68" width="12" height="12" rx="2.5" fill="#0e4429"/>
<rect class="c" style="animation-delay:0.240s" x="305" y="83" width="12" height="12" rx="2.5" fill="#0e4429"/>
<rect class="c" style="animation-delay:0.252s" x="305" y="98" width="12" height="12" rx="2.5" fill="#0e4429"/>
<rect class="c" style="animation-delay:0.264s" x="305" y="113" width="12" height="12" rx="2.5" fill="#0e4429"/>
<rect class="c" style="animation-delay:0.276s" x="305" y="128" width="12" height="12" rx="2.5" fill="#0e4429"/>
<rect class="c" style="animation-delay:0.216s" x="320" y="38" width="12" height="12" rx="2.5" fill="#161b22"/>
<rect class="c" style="animation-delay:0.228s" x="320" y="53" width="12" height="12" rx="2.5" fill="#161b22"/>
<rect class="c" style="animation-delay:0.240s" x="320" y="68" width="12" height="12" rx="2.5" fill="#0e4429"/>
<rect class="c" style="animation-delay:0.252s" x="320" y="83" width="12" height="12" rx="2.5" fill="#0e4429"/>
<rect class="c" style="animation-delay:0.264s" x="320" y="98" width="12" height="12" rx="2.5" fill="#161b22"/>
<rect class="c" style="animation-delay:0.276s" x="320" y="113" width="12" height="12" rx="2.5" fill="#0e4429"/>
<rect class="c" style="animation-delay:0.288s" x="320" y="128" width="12" height="12" rx="2.5" fill="#161b22"/>
<rect class="c" style="animation-delay:0.228s" x="335" y="38" width="12" height="12" rx="2.5" fill="#161b22"/>
<rect class="c" style="animation-delay:0.240s" x="335" y="53" width="12" height="12" rx="2.5" fill="#161b22"/>
<rect class="c" style="animation-delay:0.252s" x="335" y="68" width="12" height="12" rx="2.5" fill="#161b22"/>
<rect class="c" style="animation-delay:0.264s" x="335" y="83" width="12" height="12" rx="2.5" fill="#161b22"/>
<rect class="c" style="animation-delay:0.276s" x="335" y="98" width="12" height="12" rx="2.5" fill="#0e4429"/>
<rect class="c" style="animation-delay:0.288s" x="335" y="113" width="12" height="12" rx="2.5" fill="#161b22"/>
<rect class="c" style="animation-delay:0.300s" x="335" y="128" width="12" height="12" rx="2.5" fill="#0e4429"/>
<rect class="c" style="animation-delay:0.240s" x="350" y="38" width="12" height="12" rx="2.5" fill="#161b22"/>
<rect class="c" style="animation-delay:0.252s" x="350" y="53" width="12" height="12" rx="2.5" fill="#0e4429"/>
<rect class="c" style="animation-delay:0.264s" x="350" y="68" width="12" height="12" rx="2.5" fill="#0e4429"/>
<rect class="c" style="animation-delay:0.276s" x="350" y="83" width="12" height="12" rx="2.5" fill="#0e4429"/>
<rect class="c" style="animation-delay:0.288s" x="350" y="98" width="12" height="12" rx="2.5" fill="#161b22"/>
<rect class="c" style="animation-delay:0.300s" x="350" y="113" width="12" height="12" rx="2.5" fill="#161b22"/>
<rect class="c" style="animation-delay:0.312s" x="350" y="128" width="12" height="12" rx="2.5" fill="#161b22"/>
<text x="365" y="30">mar</text>
<rect class="c" style="animation-delay:0.252s" x="365" y="38" width="12" height="12" rx="2.5" fill="#161b22"/>
<rect class="c" style="animation-delay:0.264s" x="365" y="53" width="12" height="12" rx="2.5" fill="#0e4429"/>
<rect class="c" style="animation-delay:0.276s" x="365" y="68" width="12" height="12" rx="2.5" fill="#0e4429"/>
<rect class="c" style="animation-delay:0.288s" x="365" y="83" width="12" height="12" rx="2.5" fill="#0e4429"/>
<rect class="c" style="animation-delay:0.300s" x="365" y="98" width="12" height="12" rx="2.5" fill="#0e4429"/>
<rect class="c" style="animation-delay:0.312s" x="365" y="113" width="12" height="12" rx="2.5" fill="#161b22"/>
<rect class="c" style="animation-delay:0.324s" x="365" y="128" width="12" height="12" rx="2.5" fill="#161b22"/>
<rect class="c" style="animation-delay:0.264s" x="380" y="38" width="12" height="12" rx="2.5" fill="#161b22"/>
<rect class="c" style="animation-delay:0.276s" x="380" y="53" width="12" height="12" rx="2.5" fill="#161b22"/>
<rect class="c" style="animation-delay:0.288s" x="380" y="68" width="12" height="12" rx="2.5" fill="#161b22"/>
<rect class="c" style="animation-delay:0.300s" x="380" y="83" width="12" height="12" rx="2.5" fill="#161b22"/>
<rect class="c" style="animation-delay:0.312s" x="380" y="98" width="12" height="12" rx="2.5" fill="#161b22"/>
<rect class="c" style="animation-delay:0.324s" x="380" y="113" width="12" height="12" rx="2.5" fill="#161b22"/>
<rect class="c" style="animation-delay:0.336s" x="380" y="128" width="12" height="12" rx="2.5" fill="#161b22"/>
<rect class="c" style="animation-delay:0.276s" x="395" y="38" width="12" height="12" rx="2.5" fill="#161b22"/>
<rect class="c" style="animation-delay:0.288s" x="395" y="53" width="12" height="12" rx="2.5" fill="#161b22"/>
<rect class="c" style="animation-delay:0.300s" x="395" y="68" width="12" height="12" rx="2.5" fill="#0e4429"/>
<rect class="c" style="animation-delay:0.312s" x="395" y="83" width="12" height="12" rx="2.5" fill="#161b22"/>
<rect class="c" style="animation-delay:0.324s" x="395" y="98" width="12" height="12" rx="2.5" fill="#161b22"/>
<rect class="c" style="animation-delay:0.336s" x="395" y="113" width="12" height="12" rx="2.5" fill="#161b22"/>
<rect class="c" style="animation-delay:0.348s" x="395" y="128" width="12" height="12" rx="2.5" fill="#161b22"/>
<rect class="c" style="animation-delay:0.288s" x="410" y="38" width="12" height="12" rx="2.5" fill="#161b22"/>
<rect class="c" style="animation-delay:0.300s" x="410" y="53" width="12" height="12" rx="2.5" fill="#161b22"/>
<rect class="c" style="animation-delay:0.312s" x="410" y="68" width="12" height="12" rx="2.5" fill="#161b22"/>
<rect class="c" style="animation-delay:0.324s" x="410" y="83" width="12" height="12" rx="2.5" fill="#161b22"/>
<rect class="c" style="animation-delay:0.336s" x="410" y="98" width="12" height="12" rx="2.5" fill="#161b22"/>
<rect class="c" style="animation-delay:0.348s" x="410" y="113" width="12" height="12" rx="2.5" fill="#161b22"/>
<rect class="c" style="animation-delay:0.360s" x="410" y="128" width="12" height="12" rx="2.5" fill="#161b22"/>
<rect class="c" style="animation-delay:0.300s" x="425" y="38" width="12" height="12" rx="2.5" fill="#161b22"/>
<rect class="c" style="animation-delay:0.312s" x="425" y="53" width="12" height="12" rx="2.5" fill="#161b22"/>
<rect class="c" style="animation-delay:0.324s" x="425" y="68" width="12" height="12" rx="2.5" fill="#161b22"/>
<rect class="c" style="animation-delay:0.336s" x="425" y="83" width="12" height="12" rx="2.5" fill="#161b22"/>
<rect class="c" style="animation-delay:0.348s" x="425" y="98" width="12" height="12" rx="2.5" fill="#161b22"/>
<rect class="c" style="animation-delay:0.360s" x="425" y="113" width="12" height="12" rx="2.5" fill="#161b22"/>
<rect class="c" style="animation-delay:0.372s" x="425" y="128" width="12" height="12" rx="2.5" fill="#161b22"/>
<text x="440" y="30">abr</text>
<rect class="c" style="animation-delay:0.312s" x="440" y="38" width="12" height="12" rx="2.5" fill="#161b22"/>
<rect class="c" style="animation-delay:0.324s" x="440" y="53" width="12" height="12" rx="2.5" fill="#161b22"/>
<rect class="c" style="animation-delay:0.336s" x="440" y="68" width="12" height="12" rx="2.5" fill="#161b22"/>
<rect class="c" style="animation-delay:0.348s" x="440" y="83" width="12" height="12" rx="2.5" fill="#161b22"/>
<rect class="c" style="animation-delay:0.360s" x="440" y="98" width="12" height="12" rx="2.5" fill="#161b22"/>
<rect class="c" style="animation-delay:0.372s" x="440" y="113" width="12" height="12" rx="2.5" fill="#161b22"/>
<rect class="c" style="animation-delay:0.384s" x="440" y="128" width="12" height="12" rx="2.5" fill="#161b22"/>
<rect class="c" style="animation-delay:0.324s" x="455" y="38" width="12" height="12" rx="2.5" fill="#161b22"/>
<rect class="c" style="animation-delay:0.336s" x="455" y="53" width="12" height="12" rx="2.5" fill="#161b22"/>
<rect class="c" style="animation-delay:0.348s" x="455" y="68" width="12" height="12" rx="2.5" fill="#161b22"/>
<rect class="c" style="animation-delay:0.360s" x="455" y="83" width="12" height="12" rx="2.5" fill="#161b22"/>
<rect class="c" style="animation-delay:0.372s" x="455" y="98" width="12" height="12" rx="2.5" fill="#161b22"/>
<rect class="c" style="animation-delay:0.384s" x="455" y="113" width="12" height="12" rx="2.5" fill="#161b22"/>
<rect class="c" style="animation-delay:0.396s" x="455" y="128" width="12" height="12" rx="2.5" fill="#161b22"/>
<rect class="c" style="animation-delay:0.336s" x="470" y="38" width="12" height="12" rx="2.5" fill="#161b22"/>
<rect class="c" style="animation-delay:0.348s" x="470" y="53" width="12" height="12" rx="2.5" fill="#161b22"/>
<rect class="c" style="animation-delay:0.360s" x="470" y="68" width="12" height="12" rx="2.5" fill="#161b22"/>
<rect class="c" style="animation-delay:0.372s" x="470" y="83" width="12" height="12" rx="2.5" fill="#161b22"/>
<rect class="c" style="animation-delay:0.384s" x="470" y="98" width="12" height="12" rx="2.5" fill="#161b22"/>
<rect class="c" style="animation-delay:0.396s" x="470" y="113" width="12" height="12" rx="2.5" fill="#161b22"/>
<rect class="c" style="animation-delay:0.408s" x="470" y="128" width="12" height="12" rx="2.5" fill="#161b22"/>
<rect class="c" style="animation-delay:0.348s" x="485" y="38" width="12" height="12" rx="2.5" fill="#161b22"/>
<rect class="c" style="animation-delay:0.360s" x="485" y="53" width="12" height="12" rx="2.5" fill="#161b22"/>
<rect class="c" style="animation-delay:0.372s" x="485" y="68" width="12" height="12" rx="2.5" fill="#161b22"/>
<rect class="c" style="animation-delay:0.384s" x="485" y="83" width="12" height="12" rx="2.5" fill="#161b22"/>
<rect class="c" style="animation-delay:0.396s" x="485" y="98" width="12" height="12" rx="2.5" fill="#161b22"/>
<rect class="c" style="animation-delay:0.408s" x="485" y="113" width="12" height="12" rx="2.5" fill="#161b22"/>
<rect class="c" style="animation-delay:0.420s" x="485" y="128" width="12" height="12" rx="2.5" fill="#161b22"/>
<text x="500" y="30">mai</text>
<rect class="c" style="animation-delay:0.360s" x="500" y="38" width="12" height="12" rx="2.5" fill="#161b22"/>
<rect class="c" style="animation-delay:0.372s" x="500" y="53" width="12" height="12" rx="2.5" fill="#161b22"/>
<rect class="c" style="animation-delay:0.384s" x="500" y="68" width="12" height="12" rx="2.5" fill="#161b22"/>
<rect class="c" style="animation-delay:0.396s" x="500" y="83" width="12" height="12" rx="2.5" fill="#161b22"/>
<rect class="c" style="animation-delay:0.408s" x="500" y="98" width="12" height="12" rx="2.5" fill="#161b22"/>
<rect class="c" style="animation-delay:0.420s" x="500" y="113" width="12" height="12" rx="2.5" fill="#161b22"/>
<rect class="c" style="animation-delay:0.432s" x="500" y="128" width="12" height="12" rx="2.5" fill="#161b22"/>
<rect class="c" style="animation-delay:0.372s" x="515" y="38" width="12" height="12" rx="2.5" fill="#161b22"/>
<rect class="c" style="animation-delay:0.384s" x="515" y="53" width="12" height="12" rx="2.5" fill="#161b22"/>
<rect class="c" style="animation-delay:0.396s" x="515" y="68" width="12" height="12" rx="2.5" fill="#161b22"/>
<rect class="c" style="animation-delay:0.408s" x="515" y="83" width="12" height="12" rx="2.5" fill="#161b22"/>
<rect class="c" style="animation-delay:0.420s" x="515" y="98" width="12" height="12" rx="2.5" fill="#0e4429"/>
<rect class="c" style="animation-delay:0.432s" x="515" y="113" width="12" height="12" rx="2.5" fill="#161b22"/>
<rect class="c" style="animation-delay:0.444s" x="515" y="128" width="12" height="12" rx="2.5" fill="#161b22"/>
<rect class="c" style="animation-delay:0.384s" x="530" y="38" width="12" height="12" rx="2.5" fill="#161b22"/>
<rect class="c" style="animation-delay:0.396s" x="530" y="53" width="12" height="12" rx="2.5" fill="#161b22"/>
<rect class="c" style="animation-delay:0.408s" x="530" y="68" width="12" height="12" rx="2.5" fill="#161b22"/>
<rect class="c" style="animation-delay:0.420s" x="530" y="83" width="12" height="12" rx="2.5" fill="#161b22"/>
<rect class="c" style="animation-delay:0.432s" x="530" y="98" width="12" height="12" rx="2.5" fill="#161b22"/>
<rect class="c" style="animation-delay:0.444s" x="530" y="113" width="12" height="12" rx="2.5" fill="#161b22"/>
<rect class="c" style="animation-delay:0.456s" x="530" y="128" width="12" height="12" rx="2.5" fill="#161b22"/>
<rect class="c" style="animation-delay:0.396s" x="545" y="38" width="12" height="12" rx="2.5" fill="#161b22"/>
<rect class="c" style="animation-delay:0.408s" x="545" y="53" width="12" height="12" rx="2.5" fill="#161b22"/>
<rect class="c" style="animation-delay:0.420s" x="545" y="68" width="12" height="12" rx="2.5" fill="#161b22"/>
<rect class="c" style="animation-delay:0.432s" x="545" y="83" width="12" height="12" rx="2.5" fill="#161b22"/>
<rect class="c" style="animation-delay:0.444s" x="545" y="98" width="12" height="12" rx="2.5" fill="#161b22"/>
<rect class="c" style="animation-delay:0.456s" x="545" y="113" width="12" height="12" rx="2.5" fill="#161b22"/>
<rect class="c" style="animation-delay:0.468s" x="545" y="128" width="12" height="12" rx="2.5" fill="#161b22"/>
<rect class="c" style="animation-delay:0.408s" x="560" y="38" width="12" height="12" rx="2.5" fill="#161b22"/>
<rect class="c" style="animation-delay:0.420s" x="560" y="53" width="12" height="12" rx="2.5" fill="#161b22"/>
<rect class="c" style="animation-delay:0.432s" x="560" y="68" width="12" height="12" rx="2.5" fill="#161b22"/>
<rect class="c" style="animation-delay:0.444s" x="560" y="83" width="12" height="12" rx="2.5" fill="#161b22"/>
<rect class="c" style="animation-delay:0.456s" x="560" y="98" width="12" height="12" rx="2.5" fill="#161b22"/>
<rect class="c" style="animation-delay:0.468s" x="560" y="113" width="12" height="12" rx="2.5" fill="#161b22"/>
<rect class="c" style="animation-delay:0.480s" x="560" y="128" width="12" height="12" rx="2.5" fill="#161b22"/>
<text x="575" y="30">jun</text>
<rect class="c" style="animation-delay:0.420s" x="575" y="38" width="12" height="12" rx="2.5" fill="#0e4429"/>
<rect class="c" style="animation-delay:0.432s" x="575" y="53" width="12" height="12" rx="2.5" fill="#161b22"/>
<rect class="c" style="animation-delay:0.444s" x="575" y="68" width="12" height="12" rx="2.5" fill="#161b22"/>
<rect class="c" style="animation-delay:0.456s" x="575" y="83" width="12" height="12" rx="2.5" fill="#161b22"/>
<rect class="c" style="animation-delay:0.468s" x="575" y="98" width="12" height="12" rx="2.5" fill="#161b22"/>
<rect class="c" style="animation-delay:0.480s" x="575" y="113" width="12" height="12" rx="2.5" fill="#161b22"/>
<rect class="c" style="animation-delay:0.492s" x="575" y="128" width="12" height="12" rx="2.5" fill="#161b22"/>
<rect class="c" style="animation-delay:0.432s" x="590" y="38" width="12" height="12" rx="2.5" fill="#161b22"/>
<rect class="c" style="animation-delay:0.444s" x="590" y="53" width="12" height="12" rx="2.5" fill="#161b22"/>
<rect class="c" style="animation-delay:0.456s" x="590" y="68" width="12" height="12" rx="2.5" fill="#161b22"/>
<rect class="c" style="animation-delay:0.468s" x="590" y="83" width="12" height="12" rx="2.5" fill="#161b22"/>
<rect class="c" style="animation-delay:0.480s" x="590" y="98" width="12" height="12" rx="2.5" fill="#161b22"/>
<rect class="c" style="animation-delay:0.492s" x="590" y="113" width="12" height="12" rx="2.5" fill="#161b22"/>
<rect class="c" style="animation-delay:0.504s" x="590" y="128" width="12" height="12" rx="2.5" fill="#161b22"/>
<rect class="c" style="animation-delay:0.444s" x="605" y="38" width="12" height="12" rx="2.5" fill="#161b22"/>
<rect class="c" style="animation-delay:0.456s" x="605" y="53" width="12" height="12" rx="2.5" fill="#161b22"/>
<rect class="c" style="animation-delay:0.468s" x="605" y="68" width="12" height="12" rx="2.5" fill="#161b22"/>
<rect class="c" style="animation-delay:0.480s" x="605" y="83" width="12" height="12" rx="2.5" fill="#161b22"/>
<rect class="c" style="animation-delay:0.492s" x="605" y="98" width="12" height="12" rx="2.5" fill="#161b22"/>
<rect class="c" style="animation-delay:0.504s" x="605" y="113" width="12" height="12" rx="2.5" fill="#161b22"/>
<rect class="c" style="animation-delay:0.516s" x="605" y="128" width="12" height="12" rx="2.5" fill="#161b22"/>
<rect class="c" style="animation-delay:0.456s" x="620" y="38" width="12" height="12" rx="2.5" fill="#161b22"/>
<rect class="c" style="animation-delay:0.468s" x="620" y="53" width="12" height="12" rx="2.5" fill="#161b22"/>
<rect class="c" style="animation-delay:0.480s" x="620" y="68" width="12" height="12" rx="2.5" fill="#161b22"/>
<rect class="c" style="animation-delay:0.492s" x="620" y="83" width="12" height="12" rx="2.5" fill="#161b22"/>
<rect class="c" style="animation-delay:0.504s" x="620" y="98" width="12" height="12" rx="2.5" fill="#161b22"/>
<rect class="c" style="animation-delay:0.516s" x="620" y="113" width="12" height="12" rx="2.5" fill="#161b22"/>
<rect class="c" style="animation-delay:0.528s" x="620" y="128" width="12" height="12" rx="2.5" fill="#161b22"/>
<text x="635" y="30">jul</text>
<rect class="c" style="animation-delay:0.468s" x="635" y="38" width="12" height="12" rx="2.5" fill="#161b22"/>
<rect class="c" style="animation-delay:0.480s" x="635" y="53" width="12" height="12" rx="2.5" fill="#161b22"/>
<rect class="c" style="animation-delay:0.492s" x="635" y="68" width="12" height="12" rx="2.5" fill="#161b22"/>
<rect class="c" style="animation-delay:0.504s" x="635" y="83" width="12" height="12" rx="2.5" fill="#161b22"/>
<rect class="c" style="animation-delay:0.516s" x="635" y="98" width="12" height="12" rx="2.5" fill="#161b22"/>
<rect class="c" style="animation-delay:0.528s" x="635" y="113" width="12" height="12" rx="2.5" fill="#0e4429"/>
<rect class="c" style="animation-delay:0.540s" x="635" y="128" width="12" height="12" rx="2.5" fill="#161b22"/>
<rect class="c" style="animation-delay:0.480s" x="650" y="38" width="12" height="12" rx="2.5" fill="#161b22"/>
<rect class="c" style="animation-delay:0.492s" x="650" y="53" width="12" height="12" rx="2.5" fill="#0e4429"/>
<rect class="c" style="animation-delay:0.504s" x="650" y="68" width="12" height="12" rx="2.5" fill="#0e4429"/>
<rect class="c" style="animation-delay:0.516s" x="650" y="83" width="12" height="12" rx="2.5" fill="#161b22"/>
<rect class="c" style="animation-delay:0.528s" x="650" y="98" width="12" height="12" rx="2.5" fill="#161b22"/>
<rect class="c" style="animation-delay:0.540s" x="650" y="113" width="12" height="12" rx="2.5" fill="#0e4429"/>
<rect class="c" style="animation-delay:0.552s" x="650" y="128" width="12" height="12" rx="2.5" fill="#0e4429"/>
<rect class="c" style="animation-delay:0.492s" x="665" y="38" width="12" height="12" rx="2.5" fill="#161b22"/>
<rect class="c" style="animation-delay:0.504s" x="665" y="53" width="12" height="12" rx="2.5" fill="#161b22"/>
<rect class="c" style="animation-delay:0.516s" x="665" y="68" width="12" height="12" rx="2.5" fill="#161b22"/>
<rect class="c" style="animation-delay:0.528s" x="665" y="83" width="12" height="12" rx="2.5" fill="#161b22"/>
<rect class="c" style="animation-delay:0.540s" x="665" y="98" width="12" height="12" rx="2.5" fill="#161b22"/>
<rect class="c" style="animation-delay:0.552s" x="665" y="113" width="12" height="12" rx="2.5" fill="#0e4429"/>
<rect class="c" style="animation-delay:0.564s" x="665" y="128" width="12" height="12" rx="2.5" fill="#0e4429"/>
<rect class="c" style="animation-delay:0.504s" x="680" y="38" width="12" height="12" rx="2.5" fill="#161b22"/>
<rect class="c" style="animation-delay:0.516s" x="680" y="53" width="12" height="12" rx="2.5" fill="#0e4429"/>
<rect class="c" style="animation-delay:0.528s" x="680" y="68" width="12" height="12" rx="2.5" fill="#0e4429"/>
<rect class="c" style="animation-delay:0.540s" x="680" y="83" width="12" height="12" rx="2.5" fill="#0e4429"/>
<rect class="c" style="animation-delay:0.552s" x="680" y="98" width="12" height="12" rx="2.5" fill="#0e4429"/>
<rect class="c" style="animation-delay:0.564s" x="680" y="113" width="12" height="12" rx="2.5" fill="#0e4429"/>
<rect class="c" style="animation-delay:0.576s" x="680" y="128" width="12" height="12" rx="2.5" fill="#0e4429"/>
<text x="695" y="30">ago</text>
<rect class="c" style="animation-delay:0.516s" x="695" y="38" width="12" height="12" rx="2.5" fill="#161b22"/>
<rect class="c" style="animation-delay:0.528s" x="695" y="53" width="12" height="12" rx="2.5" fill="#161b22"/>
<rect class="c" style="animation-delay:0.540s" x="695" y="68" width="12" height="12" rx="2.5" fill="#0e4429"/>
<rect class="c" style="animation-delay:0.552s" x="695" y="83" width="12" height="12" rx="2.5" fill="#0e4429"/>
<rect class="c" style="animation-delay:0.564s" x="695" y="98" width="12" height="12" rx="2.5" fill="#0e4429"/>
<rect class="c" style="animation-delay:0.576s" x="695" y="113" width="12" height="12" rx="2.5" fill="#0e4429"/>
<rect class="c" style="animation-delay:0.588s" x="695" y="128" width="12" height="12" rx="2.5" fill="#0e4429"/>
<rect class="c" style="animation-delay:0.528s" x="710" y="38" width="12" height="12" rx="2.5" fill="#161b22"/>
<rect class="c" style="animation-delay:0.540s" x="710" y="53" width="12" height="12" rx="2.5" fill="#0e4429"/>
<rect class="c" style="animation-delay:0.552s" x="710" y="68" width="12" height="12" rx="2.5" fill="#0e4429"/>
<rect class="c" style="animation-delay:0.564s" x="710" y="83" width="12" height="12" rx="2.5" fill="#161b22"/>
<rect class="c" style="animation-delay:0.576s" x="710" y="98" width="12" height="12" rx="2.5" fill="#161b22"/>
<rect class="c" style="animation-delay:0.588s" x="710" y="113" width="12" height="12" rx="2.5" fill="#161b22"/>
<rect class="c" style="animation-delay:0.600s" x="710" y="128" width="12" height="12" rx="2.5" fill="#0e4429"/>
<rect class="c" style="animation-delay:0.540s" x="725" y="38" width="12" height="12" rx="2.5" fill="#0e4429"/>
<rect class="c" style="animation-delay:0.552s" x="725" y="53" width="12" height="12" rx="2.5" fill="#0e4429"/>
<rect class="c" style="animation-delay:0.564s" x="725" y="68" width="12" height="12" rx="2.5" fill="#0e4429"/>
<rect class="c" style="animation-delay:0.576s" x="725" y="83" width="12" height="12" rx="2.5" fill="#161b22"/>
<rect class="c" style="animation-delay:0.588s" x="725" y="98" width="12" height="12" rx="2.5" fill="#161b22"/>
<rect class="c" style="animation-delay:0.600s" x="725" y="113" width="12" height="12" rx="2.5" fill="#161b22"/>
<rect class="c" style="animation-delay:0.612s" x="725" y="128" width="12" height="12" rx="2.5" fill="#161b22"/>
<rect class="c" style="animation-delay:0.552s" x="740" y="38" width="12" height="12" rx="2.5" fill="#161b22"/>
<rect class="c" style="animation-delay:0.564s" x="740" y="53" width="12" height="12" rx="2.5" fill="#161b22"/>
<rect class="c" style="animation-delay:0.576s" x="740" y="68" width="12" height="12" rx="2.5" fill="#161b22"/>
<rect class="c" style="animation-delay:0.588s" x="740" y="83" width="12" height="12" rx="2.5" fill="#161b22"/>
<rect class="c" style="animation-delay:0.600s" x="740" y="98" width="12" height="12" rx="2.5" fill="#161b22"/>
<rect class="c" style="animation-delay:0.612s" x="740" y="113" width="12" height="12" rx="2.5" fill="#161b22"/>
<rect class="c" style="animation-delay:0.624s" x="740" y="128" width="12" height="12" rx="2.5" fill="#161b22"/>
<rect class="c" style="animation-delay:0.564s" x="755" y="38" width="12" height="12" rx="2.5" fill="#161b22"/>
<rect class="c" style="animation-delay:0.576s" x="755" y="53" width="12" height="12" rx="2.5" fill="#161b22"/>
<rect class="c" style="animation-delay:0.588s" x="755" y="68" width="12" height="12" rx="2.5" fill="#161b22"/>
<rect class="c" style="animation-delay:0.600s" x="755" y="83" width="12" height="12" rx="2.5" fill="#161b22"/>
<rect class="c" style="animation-delay:0.612s" x="755" y="98" width="12" height="12" rx="2.5" fill="#161b22"/>
<rect class="c" style="animation-delay:0.624s" x="755" y="113" width="12" height="12" rx="2.5" fill="#161b22"/>
<rect class="c" style="animation-delay:0.636s" x="755" y="128" width="12" height="12" rx="2.5" fill="#0e4429"/>
<text x="770" y="30">set</text>
<rect class="c" style="animation-delay:0.576s" x="770" y="38" width="12" height="12" rx="2.5" fill="#161b22"/>
<rect class="c" style="animation-delay:0.588s" x="770" y="53" width="12" height="12" rx="2.5" fill="#0e4429"/>
<rect class="c" style="animation-delay:0.600s" x="770" y="68" width="12" height="12" rx="2.5" fill="#0e4429"/>
<rect class="c" style="animation-delay:0.612s" x="770" y="83" width="12" height="12" rx="2.5" fill="#0e4429"/>
<rect class="c" style="animation-delay:0.624s" x="770" y="98" width="12" height="12" rx="2.5" fill="#006d32"/>
<rect class="c" style="animation-delay:0.636s" x="770" y="113" width="12" height="12" rx="2.5" fill="#0e4429"/>
<rect class="c" style="animation-delay:0.648s" x="770" y="128" width="12" height="12" rx="2.5" fill="#0e4429"/>
<rect class="c" style="animation-delay:0.588s" x="785" y="38" width="12" height="12" rx="2.5" fill="#0e4429"/>
<rect class="c" style="animation-delay:0.600s" x="785" y="53" width="12" height="12" rx="2.5" fill="#0e4429"/>
<rect class="c" style="animation-delay:0.612s" x="785" y="68" width="12" height="12" rx="2.5" fill="#0e4429"/>
<rect class="c" style="animation-delay:0.624s" x="785" y="83" width="12" height="12" rx="2.5" fill="#39d353"/>
<rect class="c" style="animation-delay:0.636s" x="785" y="98" width="12" height="12" rx="2.5" fill="#39d353"/>
<rect class="c" style="animation-delay:0.648s" x="785" y="113" width="12" height="12" rx="2.5" fill="#0e4429"/>
<rect class="c" style="animation-delay:0.660s" x="785" y="128" width="12" height="12" rx="2.5" fill="#161b22"/>
<rect class="c" style="animation-delay:0.600s" x="800" y="38" width="12" height="12" rx="2.5" fill="#161b22"/>
<rect class="c" style="animation-delay:0.612s" x="800" y="53" width="12" height="12" rx="2.5" fill="#161b22"/>
<rect class="c" style="animation-delay:0.624s" x="800" y="68" width="12" height="12" rx="2.5" fill="#39d353"/>
<rect class="c" style="animation-delay:0.636s" x="800" y="83" width="12" height="12" rx="2.5" fill="#39d353"/>
<rect class="c" style="animation-delay:0.648s" x="800" y="98" width="12" height="12" rx="2.5" fill="#26a641"/>
<rect class="c" style="animation-delay:0.660s" x="800" y="113" width="12" height="12" rx="2.5" fill="#0e4429"/>
<rect class="c" style="animation-delay:0.672s" x="800" y="128" width="12" height="12" rx="2.5" fill="#0e4429"/>
<rect class="c" style="animation-delay:0.612s" x="815" y="38" width="12" height="12" rx="2.5" fill="#006d32"/>
<rect class="c" style="animation-delay:0.624s" x="815" y="53" width="12" height="12" rx="2.5" fill="#0e4429"/>
<rect class="c" style="animation-delay:0.636s" x="815" y="68" width="12" height="12" rx="2.5" fill="#0e4429"/>
<rect class="c" style="animation-delay:0.648s" x="815" y="83" width="12" height="12" rx="2.5" fill="#0e4429"/>
<rect class="c" style="animation-delay:0.660s" x="815" y="98" width="12" height="12" rx="2.5" fill="#0e4429"/>
<rect class="c" style="animation-delay:0.672s" x="815" y="113" width="12" height="12" rx="2.5" fill="#0e4429"/>
<rect class="c" style="animation-delay:0.684s" x="815" y="128" width="12" height="12" rx="2.5" fill="#0e4429"/>
<text x="830" y="30">out</text>
<rect class="c" style="animation-delay:0.624s" x="830" y="38" width="12" height="12" rx="2.5" fill="#0e4429"/>
<rect class="c" style="animation-delay:0.636s" x="830" y="53" width="12" height="12" rx="2.5" fill="#0e4429"/>
<rect class="c" style="animation-delay:0.648s" x="830" y="68" width="12" height="12" rx="2.5" fill="#0e4429"/>
<rect class="c" style="animation-delay:0.660s" x="830" y="83" width="12" height="12" rx="2.5" fill="#0e4429"/>
<rect class="c" style="animation-delay:0.672s" x="830" y="98" width="12" height="12" rx="2.5" fill="#0e4429"/>
<rect class="c" style="animation-delay:0.684s" x="830" y="113" width="12" height="12" rx="2.5" fill="#0e4429"/>
<rect class="c" style="animation-delay:0.696s" x="830" y="128" width="12" height="12" rx="2.5" fill="#161b22"/>
<text x="50" y="165" style="fill:#c9d1d9">890 contribuições no último ano<tspan style="fill:#8b949e">  ·  sequência atual 18d  ·  maior 18d  ·  melhor dia 108 (22/09)</tspan></text>
<text x="689" y="165">menos</text>
<rect x="733" y="155" width="12" height="12" rx="2.5" fill="#161b22"/>
<rect x="748" y="155" width="12" height="12" rx="2.5" fill="#0e4429"/>
<rect x="763" y="155" width="12" height="12" rx="2.5" fill="#006d32"/>
<rect x="778" y="155" width="12" height="12" rx="2.5" fill="#26a641"/>
<rect x="793" y="155" width="12" height="12" rx="2.5" fill="#39d353"/>
<text x="812" y="165">mais</text>
</svg>